<svg width="27" height="29" viewBox="0 0 27 29" fill="none" xmlns="http://www.w3.org/2000/svg">
<path fill-rule="evenodd" clip-rule="evenodd" d="M12.6489 28.7723C12.805 28.8611 12.9448 28.9035 13.0759 28.9367C13.2574 28.9826 13.4211 29 13.5779 29.0004C13.9154 29.0014 14.2303 28.9332 14.6928 28.6661L25.804 22.5684C26.6368 22.0874 27 21.5845 27 20.6227V8.21699C27 7.25514 26.4163 6.82513 25.579 6.34421L14.4146 0.225705C14.3123 0.167466 14.2316 0.122637 14.1483 0.0927263C13.9623 0.0259582 13.8092 0.000427246 13.6153 0.000427246C13.3345 0.000427246 13.0567 0.0019173 12.5529 0.292842L1.65192 6.20984C0.819115 6.69077 0 7.25514 0 8.21699L0.0223873 20.6766C0.0223873 21.6384 0.718479 22.2636 1.55576 22.7445L12.6489 28.7723Z" fill="#32C3FF"/>
<path fill-rule="evenodd" clip-rule="evenodd" d="M16.9012 9.83265V13.9913H17.7656V10.4229L19.2717 13.4011C19.5205 13.884 19.7432 14.045 20.0837 14.045C20.4504 14.045 20.6599 13.8169 20.6599 13.3072V9.14848H19.7956V12.7035L18.2894 9.73874C18.0537 9.26921 17.8048 9.10823 17.4774 9.10823C17.1238 9.09482 16.9012 9.32287 16.9012 9.83265V9.83265ZM14.1109 14.0449C15.5777 14.0449 15.9968 13.3205 15.9968 11.5765C15.9968 9.81915 15.5777 9.10815 14.1109 9.10815C12.6309 9.09474 12.2118 9.81915 12.2118 11.5765C12.2118 13.3339 12.6309 14.0449 14.1109 14.0449ZM13.1936 11.5765C13.1936 10.5838 13.2198 9.913 14.1104 9.913C15.001 9.913 15.0272 10.5838 15.0272 11.5765C15.0272 12.5692 15.001 13.2399 14.1104 13.2399C13.2067 13.2265 13.1936 12.5558 13.1936 11.5765V11.5765ZM8.0085 9.22894V13.9913H8.96457V12.14C9.13482 12.1534 9.34437 12.1668 9.54083 12.1668L10.51 13.9913H11.6101L10.5231 12.0461C11.0862 11.8717 11.4268 11.4693 11.4268 10.6107C11.4268 9.29601 10.5755 9.09479 9.52773 9.09479C8.97766 9.09479 8.4145 9.14845 8.0085 9.22894V9.22894ZM8.96434 11.362V9.89971C9.16079 9.87288 9.38344 9.85946 9.56679 9.85946C10.2609 9.85946 10.4967 10.0741 10.4967 10.6107C10.4967 11.2278 10.1431 11.3888 9.5537 11.3888C9.37034 11.3888 9.18699 11.3888 8.99054 11.362V11.362C8.99054 11.362 8.99054 11.362 8.97744 11.362V11.362C8.97744 11.362 8.97744 11.362 8.96434 11.362V11.362V11.362C8.97744 11.362 8.97744 11.362 8.96434 11.362V11.362C8.97744 11.362 8.97744 11.362 8.96434 11.362V11.362V11.362V11.362ZM6.01672 13.9912H6.98589V9.14832H6.01672V13.9912V13.9912ZM14.1112 14.0451C14.1112 14.0451 12.6312 14.0451 14.1112 14.0451V14.0451Z" fill="white"/>
<path fill-rule="evenodd" clip-rule="evenodd" d="M14.1971 17.838C14.1971 19.4409 14.5434 20.1372 15.9543 20.1372C16.3135 20.1372 16.6341 20.0978 16.9163 20.0452L16.8778 19.7431C16.6341 19.7825 16.3904 19.8087 16.1467 19.8087C14.7614 19.8087 14.5819 19.165 14.5819 17.838C14.5819 16.511 14.7358 15.8672 16.1467 15.8672C16.3904 15.8672 16.6469 15.9066 16.8778 15.9329L16.9163 15.6176C16.6469 15.565 16.3135 15.5256 15.9543 15.5256C14.5434 15.5388 14.1971 16.2351 14.1971 17.838V17.838ZM11.6845 15.8016L10.0812 20.0979H10.466L10.9534 18.7578H12.9415L13.4289 20.0979H13.8266L12.2361 15.8016C12.1719 15.6308 12.0821 15.5389 11.9539 15.5389C11.8384 15.5389 11.7615 15.6177 11.6845 15.8016V15.8016ZM11.9536 16.0512L12.8258 18.4424H11.0685L11.9536 16.0512V16.0512ZM20.162 15.5913L18.1225 17.6803V15.5913H17.7506V20.0978H18.1225V17.8774L20.2005 20.0978H20.6879L18.4945 17.7723L20.6237 15.5913H20.162V15.5913ZM8.90062 15.5913V17.6278H6.42507V15.5913H6.0531V20.0978H6.42507V17.9562H8.91344V20.0978H9.28541V15.5913H8.90062V15.5913Z" fill="white"/>
</svg>
