<svg xmlns="http://www.w3.org/2000/svg" width="92" height="80" viewBox="0 0 92 80">
    <path fill="#FFD35C" fill-rule="evenodd" d="M42.484 80H0V47.157c0-12.092 2.507-21.634 7.52-28.628C12.534 11.536 21.128 5.36 33.304 0l9.18 17.451c-7.488 3.53-12.664 7.042-15.529 10.54-2.864 3.496-4.46 7.63-4.785 12.401h20.314V80zM92 80H49.516V47.157c0-12.092 2.507-21.634 7.52-28.628C62.05 11.536 70.644 5.36 82.82 0L92 17.451c-7.488 3.53-12.664 7.042-15.529 10.54-2.865 3.496-4.46 7.63-4.785 12.401H92V80z"/>
</svg>
